PathFileType	4	(X/Y/Z)	Patient4_TMGait_0pt4_01_right_10.trc.trc
DataRate	CameraRate	NumFrames	NumMarkers	Units	OrigDataRate	OrigDataStartFrame	OrigNumFrames
76.923076923077	76.923076923077	4	33	mm	76.923076923077	89	       141
Frame#	Time	Sacral			L.Shoulder			Chest			R.Shoulder			Neck			R.ASIS			L.ASIS			R.Thigh.Superior			R.Thigh.Lateral			R.Thigh.Inferior			R.Patella			L.Thigh.Superior			L.Thigh.Lateral			L.Thigh.Inferior			L.Patella			L.Shank.Superior			L.Shank.Lateral			L.Shank.Inferior			R.Shank.Superior			R.Shank.Lateral			R.Shank.Inferior			R.Heel			R.Midfoot.Superior			R.Midfoot.Lateral			R.Toe			L.Heel			L.Midfoot.Lateral			L.Midfoot.Superior			L.Toe			L.Elbow			L.Wrist			R.Elbow			R.Wrist			
		X1	Y1	Z1	X2	Y2	Z2	X3	Y3	Z3	X4	Y4	Z4	X5	Y5	Z5	X6	Y6	Z6	X7	Y7	Z7	X8	Y8	Z8	X9	Y9	Z9	X10	Y10	Z10	X11	Y11	Z11	X12	Y12	Z12	X13	Y13	Z13	X14	Y14	Z14	X15	Y15	Z15	X16	Y16	Z16	X17	Y17	Z17	X18	Y18	Z18	X19	Y19	Z19	X20	Y20	Z20	X21	Y21	Z21	X22	Y22	Z22	X23	Y23	Z23	X24	Y24	Z24	X25	Y25	Z25	X26	Y26	Z26	X27	Y27	Z27	X28	Y28	Z28	X29	Y29	Z29	X30	Y30	Z30	X31	Y31	Z31	X32	Y32	Z32	X33	Y33	Z33	

89	13.844000000000	805.483248879116	998.835700853324	490.434908725458	955.140021470648	1426.545583051513	289.041627485113	1070.637897007050	1368.031128622486	444.940253441428	997.515978932865	1443.940400370854	622.695135743955	947.774134548226	1493.708011178178	444.024457343544	1040.022664698087	940.393166682415	594.089923071439	1013.123713809345	962.474271120687	321.225976439434	1085.344011197159	738.690002374032	567.452409716359	1012.062906516281	625.496932486299	634.518114458554	1091.697491572568	570.793722657486	557.087995745026	1087.920360013975	462.965215450595	576.528120445397	1080.125575561223	758.404994753452	349.237018073911	1000.809211695997	634.252220247794	295.194560130676	1093.877983146673	565.536969482128	356.749303779413	1099.819539272137	496.304098710409	367.136636462926	1075.987223710674	421.450982099164	360.770402472749	989.836042474989	302.738170440238	314.673099067379	1047.928067957261	195.210187507208	385.817659274272	1015.904288380842	391.228555899127	582.679557974809	900.645098522899	339.972372235987	645.578134702151	893.360295180403	231.764137450788	591.719392106412	697.126337112188	141.249617715764	568.467991239106	873.369955167933	115.537038360938	602.151633804392	768.576541795538	94.123903899594	638.620023414514	958.414899238941	32.988154984707	623.782579528592	926.512607956505	37.413688560500	434.021791439596	995.707795091640	35.624849207460	349.144015893965	1078.912827090784	97.506068128841	371.780244608207	1206.309248541380	48.715269915642	335.842826544287	937.777369888256	1069.754199204074	182.408720152478	1028.019680223823	825.779246026178	159.807178681576	1005.912350678288	1098.872504285008	752.557449958237	1162.278833743938	893.828306272108	718.253099248116	
90	13.857000000000	804.577739743859	999.036207881598	487.656040298948	957.154017169603	1426.816682812113	286.447256100908	1070.886518121175	1368.148612243180	443.547485777483	996.138781540606	1444.128235515307	620.594298637774	948.287795389190	1494.014882759105	441.515604385460	1039.022189229215	941.150660605843	592.603822733954	1013.205250317993	962.786899397417	319.575592264036	1090.040634656034	742.177231695168	566.067068531673	1020.548566702535	627.315096137815	633.730544734270	1102.231373176484	574.283370139901	556.691393393613	1100.293699081102	465.351748458456	576.736400740637	1078.645096088603	757.707265106488	348.144966124622	998.852277245668	634.260000599072	293.774028261561	1090.848908424255	564.911706226145	356.050073534924	1096.111434617952	495.698250060483	366.495201904157	1072.105261739460	420.962424061042	360.083522015910	985.688407070086	302.440940614162	314.220636179774	1043.192539582181	194.915947759099	385.699681584130	1026.704128113777	393.930185210123	582.678763602460	909.762581466236	346.149362975253	645.302530315256	899.665038408056	237.993352835921	592.160472101564	701.050446687033	156.733573196172	568.703324901716	875.341204459994	120.070813762536	602.602820698540	769.310091803118	104.968462694795	638.760028777423	954.422157018290	31.925740576118	623.887844378319	921.209555572055	37.382035104948	433.998702100298	990.400882180720	35.566202456675	349.127509245301	1073.677365626027	97.355010936822	371.818216994823	1201.039662213161	48.495597669882	335.847806696818	945.562024886188	1070.194242950818	178.279200699429	1043.455071492258	829.095151161394	155.514927730164	996.964286884128	1098.526295873352	749.568374351970	1142.802725242832	884.591472495206	720.572318582132	
91	13.870000000000	803.561067667238	999.153140814070	484.944301269162	959.191995489460	1427.073813291564	284.019856106334	1071.086234104304	1368.198223581367	442.330306073250	994.648078986317	1444.170100322699	618.664940988371	948.818054128907	1494.276931084633	439.185925961015	1037.969654002613	941.928223787055	591.202353729690	1013.230302830125	963.009380936277	317.989738352614	1094.507063289306	745.914929359850	564.672259035743	1028.935168167807	629.520768899805	633.055444663287	1112.420008219983	578.244237799340	556.244289727883	1112.460816882296	468.329917512668	576.780103872416	1077.172738899355	757.054307885888	347.320268690095	997.036242600082	634.273929382646	292.401972384857	1087.940064152590	564.310183023500	355.446211340944	1092.537524633794	495.086994787643	365.926469108989	1068.348447332227	420.459078739987	359.464213616596	981.656810794815	302.153324969701	313.761725387828	1038.524562264405	194.612719289636	385.597289867065	1037.508000413994	397.093755006083	582.575430488851	919.143273570587	352.511735616727	644.991962049398	906.439562407564	244.517828633509	592.498076869002	706.035346703770	172.237345955742	568.811295444936	877.976842402614	125.080063888122	602.946862244178	770.974473926780	116.138026516682	638.796114595151	951.065582196955	31.003144843739	623.958962176209	915.922022344057	37.352679038639	433.964492985959	985.115669293066	35.518790810430	349.104593020483	1068.469534923253	97.212905197060	371.858071486150	1195.795346742464	48.270261624669	335.854960044922	953.173253599308	1070.766767154507	174.295406571092	1058.902140521633	832.864908675816	151.533529720437	987.921809958896	1098.145156564376	746.546435150044	1122.768332075686	876.045119526273	723.235587470968	
92	13.883000000000	802.473366105408	999.222089930349	482.293352693911	961.232397860844	1427.340492838299	281.776232662882	1071.244700747300	1368.214664067064	441.285171242880	993.072706120743	1444.111864359473	616.903428967388	949.363939939170	1494.520269887832	437.042996221775	1036.866859422864	942.738639468832	589.870590141986	1013.229431242417	963.168568346220	316.463946234697	1098.643979359627	749.862928024243	563.248779975009	1037.069384490811	632.113074053959	632.460142305167	1122.094998144268	582.639060957386	555.712119628867	1124.267932119764	471.859619747848	576.663303646585	1075.763630315728	756.445186323594	346.632863105452	995.296616830998	634.280239611610	291.103790155642	1085.140376904341	563.719869503845	354.887466036465	1089.097269806647	494.477078273433	365.420962336494	1064.712861353015	419.949568550372	358.913911032886	977.729372749356	301.886816949824	313.307987538507	1033.920608901577	194.307902586948	385.508248458102	1048.160667458735	400.681478087430	582.377874417683	928.614608686017	358.958104352680	644.635584901557	913.590160762128	251.188650246782	592.732995476958	711.967250512734	187.240624618239	568.798815044953	881.341705592336	130.435483263750	603.181529696592	773.625086028465	127.225127857681	638.715356894484	948.652237127755	30.370735147694	623.951867142505	910.653563006754	37.326588425849	433.921390913351	979.855192274188	35.484030069149	349.075043093813	1063.287972144423	97.086483377348	371.896375077195	1190.577621271195	48.049939674128	335.859544025930	960.613569190651	1071.482135561435	170.469394884849	1074.287476269169	837.098762747656	147.887267950707	978.828445627132	1097.793244292468	743.517658737205	1102.310216184636	868.336834927634	726.175697414300	
